<?xml version="1.0" ?><svg id="Layer_1" style="enable-background:new 0 0 48 48;" version="1.1" viewBox="0 0 48 48" xml:space="preserve" xmlns="http://www.w3.org/2000/svg" xmlns:xlink="http://www.w3.org/1999/xlink"><g><polygon points="24.2,22.1 22.2,22.1 22.2,26.3 18,26.3 18,28.3 22.2,28.3 22.2,32.6 24.2,32.6 24.2,28.3 28.5,28.3 28.5,26.3    24.2,26.3  "/><path d="M44.7,17.5l2.8-4.9h-9.2V0.5H5.6C4.2,0.5,3,1,2,2C1,3,0.5,4.3,0.5,5.6v36.8c0,2.8,2.3,5.1,5.1,5.1h32.7V22.4h9.2L44.7,17.5   z M9.2,43.5h-2V12.7h2V43.5z M23.2,36.3c-5,0-9-4-9-9s4-9,9-9c5,0,9,4,9,9S28.2,36.3,23.2,36.3z M36.3,4.6H6.2v2h30.1v2.1H5.6   c-1.7,0-3.1-1.4-3.1-3.1c0-0.8,0.3-1.6,0.9-2.2C4,2.8,4.8,2.5,5.6,2.5h30.7V4.6z"/></g></svg>